<?xml version="1.0" standalone="no"?>
<!DOCTYPE svg PUBLIC "-//W3C//DTD SVG 20010904//EN"
 "http://www.w3.org/TR/2001/REC-SVG-20010904/DTD/svg10.dtd">
<svg version="1.0" xmlns="http://www.w3.org/2000/svg"
 width="300.000000pt" height="99.000000pt" viewBox="0 0 300.000000 99.000000"
 preserveAspectRatio="xMidYMid meet">
<metadata>
Created by potrace 1.10, written by Peter Selinger 2001-2011
</metadata>
<g transform="translate(0.000000,99.000000) scale(0.100000,-0.100000)"
fill="#ffffff" stroke="none">
<path d="M50 950 c-42 -42 -12 -120 48 -120 28 0 45 -16 117 -110 19 -25 47
-63 61 -85 15 -22 33 -46 41 -53 7 -7 13 -19 13 -26 0 -6 8 -28 19 -49 10 -20
22 -56 25 -80 8 -49 33 -68 76 -57 24 6 23 7 -10 13 -39 8 -60 40 -60 93 0 18
-3 34 -8 36 -4 2 -19 27 -33 56 -19 38 -22 52 -12 52 22 0 33 43 14 57 -13 10
-14 12 -1 13 8 0 -1 11 -21 24 -48 33 -109 109 -109 138 0 30 -15 52 -29 44
-7 -5 -11 1 -11 13 0 30 -35 61 -70 61 -17 0 -39 -9 -50 -20z m78 -6 c24 -17
30 -62 10 -82 -20 -20 -65 -14 -82 10 -21 30 -20 44 4 68 24 24 38 25 68 4z
m62 -105 c0 -10 4 -19 8 -19 4 0 16 -14 26 -30 21 -37 86 -101 95 -95 4 2 8
-12 9 -30 2 -31 0 -34 -17 -27 -31 11 -112 122 -106 143 5 13 2 17 -7 14 -19
-8 -74 50 -57 60 8 6 10 4 5 -6 -4 -8 -1 -7 5 2 16 21 39 13 39 -12z"/>
<path d="M351 771 c-6 -10 -8 -20 -6 -23 2 -2 6 -19 7 -37 3 -43 15 -49 20
-10 3 16 1 32 -4 35 -12 8 22 33 45 34 10 0 17 -7 17 -19 0 -11 5 -23 10 -26
6 -3 10 -22 10 -41 0 -26 -4 -34 -18 -34 -26 0 -34 -11 -21 -27 15 -18 30 -17
23 2 -4 9 0 15 10 15 9 0 16 -5 16 -11 0 -5 5 -7 10 -4 6 3 10 15 10 27 0 18
4 20 39 14 69 -11 90 -22 84 -46 -4 -13 -11 -19 -20 -16 -8 3 -16 6 -19 6 -2
0 -1 8 3 18 4 13 3 14 -6 6 -20 -18 -22 -93 -5 -130 9 -19 20 -32 24 -29 13 8
6 -51 -8 -68 -13 -15 -98 -47 -126 -47 -24 0 -19 -28 13 -69 15 -20 40 -55 55
-79 33 -52 79 -82 128 -82 26 0 44 -7 63 -26 14 -14 33 -24 43 -22 25 5 17 49
-14 74 -26 21 -54 28 -54 12 0 -4 7 -8 16 -8 8 0 13 -4 10 -9 -9 -13 -46 -1
-46 15 0 13 12 18 33 15 4 0 7 3 7 8 0 5 -16 15 -35 21 -26 9 -37 19 -41 38
-6 26 -54 73 -54 53 0 -5 5 -13 11 -17 6 -3 17 -22 25 -40 8 -19 18 -34 23
-34 5 0 11 -15 13 -34 4 -33 3 -33 -26 -25 -38 11 -69 40 -117 111 -53 78 -56
87 -26 81 34 -7 115 42 123 73 6 23 7 22 72 -26 101 -75 161 -131 155 -147 -3
-7 -11 -13 -18 -13 -22 0 -142 54 -143 65 0 6 -11 13 -24 17 -73 20 -62 -4 19
-42 37 -18 81 -43 96 -56 31 -26 57 -33 38 -10 -9 11 -7 12 12 9 13 -3 28 -13
35 -23 9 -15 7 -19 -9 -23 -10 -3 -19 -2 -19 3 0 4 -9 10 -21 13 -36 9 -15
-17 32 -40 50 -25 99 -30 99 -10 0 16 -41 57 -57 57 -5 0 -17 8 -26 18 -13 14
-14 21 -5 30 8 8 6 18 -7 39 -22 35 -50 58 -147 125 -43 29 -78 57 -78 62 0 5
-7 17 -16 27 -19 21 -29 116 -11 101 20 -16 139 -7 177 13 19 10 48 18 63 17
25 -2 28 1 25 24 -5 40 -31 52 -66 32 -16 -10 -31 -15 -34 -13 -2 3 -30 0 -61
-5 -49 -8 -64 -6 -103 11 -31 14 -57 19 -78 15 -31 -6 -31 -6 -32 36 -2 49
-22 68 -71 68 -21 0 -36 -6 -42 -19z m39 4 c0 -2 -9 -9 -20 -15 -16 -9 -18 -8
-14 5 5 13 34 22 34 10z m430 -115 c0 -4 -7 -11 -16 -14 -8 -3 -12 -2 -9 4 11
19 -7 10 -24 -11 -17 -21 -17 -21 -17 -1 0 11 3 19 7 16 4 -2 12 3 19 11 11
14 40 10 40 -5z m-80 -30 c0 -14 -7 -20 -21 -20 -12 0 -17 -4 -13 -11 5 -8 1
-8 -14 0 -27 15 -72 14 -72 -1 0 -6 -3 -9 -6 -6 -3 4 -1 15 5 26 8 14 21 20
46 20 20 0 39 3 42 6 14 13 33 5 33 -14z m24 -406 c3 -8 2 -12 -4 -9 -6 3 -10
10 -10 16 0 14 7 11 14 -7z m136 -86 c0 -5 -10 -6 -22 -2 -30 9 -30 8 -22 28
6 16 8 16 25 0 11 -9 19 -21 19 -26z m-154 -16 c2 -11 -1 -24 -8 -28 -7 -5 -8
-3 -3 6 6 10 4 12 -9 7 -9 -4 -15 -3 -11 2 3 5 0 11 -7 13 -17 6 -1 27 19 24
9 -2 18 -12 19 -24z"/>
<path d="M1706 768 c-3 -7 -10 -38 -16 -68 -41 -198 -81 -387 -86 -401 -6 -20
29 -31 60 -19 19 7 27 34 70 241 27 129 49 239 50 244 2 16 -73 19 -78 3z m64
-15 c0 -5 -21 -110 -47 -235 l-48 -228 -27 0 c-16 0 -28 3 -28 8 0 4 21 109
47 235 l47 227 28 0 c15 0 28 -3 28 -7z"/>
<path d="M2527 763 c-3 -10 -11 -42 -17 -70 -11 -48 -14 -52 -31 -42 -26 13
-56 3 -75 -27 -16 -23 -73 -259 -74 -301 0 -32 28 -56 59 -48 14 3 47 5 72 5
l46 -1 17 88 c10 48 33 157 51 242 19 85 32 158 29 163 -3 4 -20 8 -39 8 -24
0 -35 -5 -38 -17z m70 -5 c-2 -7 -26 -116 -52 -241 l-48 -228 -41 2 c-23 0
-53 -3 -68 -6 -50 -13 -53 20 -19 180 26 119 34 143 57 163 24 21 28 22 50 7
31 -20 31 -20 38 23 18 99 25 112 57 112 21 0 30 -4 26 -12z"/>
<path d="M2457 583 c-8 -12 -47 -200 -47 -223 0 -23 28 -27 36 -5 13 33 50
212 46 223 -4 13 -28 16 -35 5z m3 -133 c-21 -96 -26 -108 -36 -97 -7 6 32
202 43 220 17 25 13 -32 -7 -123z"/>
<path d="M390 741 c0 -6 5 -13 10 -16 6 -3 10 1 10 9 0 9 -4 16 -10 16 -5 0
-10 -4 -10 -9z"/>
<path d="M1824 699 c-4 -24 -13 -43 -23 -47 -21 -8 -31 -22 -31 -49 0 -15 6
-23 16 -23 9 0 14 -6 11 -13 -3 -7 -15 -64 -28 -126 -21 -102 -22 -115 -8
-139 11 -21 24 -28 53 -30 43 -4 56 7 56 51 0 17 -5 27 -15 27 -19 0 -19 20 0
112 25 122 23 118 50 118 18 0 25 5 25 19 0 11 3 26 6 35 4 12 0 16 -16 16
-21 0 -22 3 -16 45 l7 45 -40 0 c-40 0 -41 -1 -47 -41z m71 -1 c-4 -18 -8 -37
-9 -43 0 -5 8 -11 20 -13 31 -5 21 -52 -11 -52 -20 0 -25 -9 -40 -72 -9 -40
-19 -97 -22 -125 -5 -45 -3 -53 11 -53 17 0 20 -17 10 -44 -10 -26 -61 -20
-80 10 -16 24 -16 31 5 132 13 59 25 117 28 130 4 16 1 22 -11 22 -28 0 -17
41 15 52 10 4 19 23 23 47 6 38 9 41 37 41 29 0 30 -1 24 -32z"/>
<path d="M383 690 c3 -13 0 -23 -9 -27 -17 -6 -9 -23 9 -18 37 9 57 18 57 27
0 5 -8 4 -19 -2 -28 -15 -33 -13 -22 9 8 15 7 20 -5 25 -13 5 -15 2 -11 -14z"/>
<path d="M1053 640 c-18 -10 -38 -32 -46 -47 -22 -42 -40 -141 -33 -183 5 -29
2 -41 -14 -55 -21 -19 -27 -60 -10 -70 6 -4 0 -15 -14 -26 -97 -76 36 -155
156 -93 31 16 58 61 58 98 0 30 -37 61 -85 70 -40 8 -47 26 -10 26 29 0 91 52
98 83 3 12 11 48 17 80 9 44 15 57 30 57 16 0 30 25 30 58 0 15 -32 16 -47 1
-8 -8 -19 -6 -41 5 -40 21 -50 20 -89 -4z m97 -15 c10 -12 15 -12 36 2 29 19
35 15 27 -15 -3 -12 -13 -22 -22 -22 -14 0 -21 -18 -35 -82 -20 -94 -53 -138
-104 -138 -40 0 -51 -27 -16 -40 14 -6 34 -10 45 -10 34 0 62 -38 55 -74 -14
-67 -97 -107 -177 -86 -52 14 -58 58 -11 96 17 14 22 23 14 28 -20 12 -14 45
12 71 21 21 23 28 14 53 -16 42 14 168 49 204 30 32 92 39 113 13z"/>
<path d="M1073 578 c-13 -16 -33 -98 -33 -132 0 -30 25 -35 38 -8 14 28 34
131 27 142 -8 14 -20 13 -32 -2z m27 -4 c0 -25 -34 -144 -41 -144 -12 0 -11
21 2 78 16 68 17 72 29 72 5 0 10 -2 10 -6z"/>
<path d="M986 248 c-15 -21 -15 -24 1 -35 31 -23 93 -8 93 22 0 17 -6 21 -47
29 -25 6 -34 3 -47 -16z m76 -13 c5 -16 -50 -31 -64 -17 -18 18 7 42 37 34 14
-4 26 -11 27 -17z"/>
<path d="M1295 650 c-56 -23 -99 -131 -112 -281 -5 -61 -4 -67 18 -83 54 -37
135 -3 158 67 28 85 50 226 40 255 -15 42 -60 61 -104 42z m85 -25 c6 -8 12
-29 12 -47 -1 -42 -38 -223 -52 -248 -38 -72 -150 -63 -150 12 0 41 40 218 56
250 8 15 22 32 31 37 27 15 89 13 103 -4z"/>
<path d="M1294 579 c-11 -19 -54 -230 -48 -240 10 -17 34 -9 44 14 11 25 50
199 50 222 0 17 -35 20 -46 4z m36 -6 c-1 -19 -48 -225 -53 -229 -3 -4 -10 -3
-15 0 -6 4 -1 48 14 113 13 60 23 111 24 116 0 4 7 7 15 7 8 0 15 -3 15 -7z"/>
<path d="M1502 640 c-32 -20 -72 -74 -72 -97 0 -8 15 -13 40 -13 34 0 41 4 46
25 6 26 24 35 24 13 -1 -37 -15 -57 -52 -74 -67 -30 -117 -120 -103 -184 8
-35 46 -50 77 -31 13 8 24 8 38 1 10 -5 29 -9 41 -7 21 3 25 17 54 159 33 163
33 184 -7 212 -29 21 -46 20 -86 -4z m98 -15 c15 -18 11 -66 -21 -217 -23
-115 -25 -118 -51 -118 -14 0 -28 5 -30 12 -3 8 -11 7 -28 -5 -55 -39 -90 -3
-71 71 14 51 52 97 101 122 39 20 50 36 50 76 0 32 -27 31 -42 -1 -8 -18 -19
-25 -39 -25 -27 0 -27 1 -17 30 5 17 21 39 35 50 30 24 95 27 113 5z"/>
<path d="M1486 429 c-15 -18 -26 -43 -26 -60 0 -26 4 -30 22 -27 17 2 25 14
35 53 7 28 13 53 13 58 0 16 -20 5 -44 -24z m17 -40 c-9 -34 -33 -52 -33 -24
0 23 32 83 37 68 2 -6 0 -26 -4 -44z"/>
<path d="M2014 650 c-37 -15 -72 -68 -84 -127 -7 -32 -18 -83 -25 -114 -15
-68 -10 -104 18 -124 50 -35 126 -5 153 61 24 57 19 74 -21 74 -32 0 -35 -3
-45 -41 -7 -24 -16 -39 -23 -36 -13 4 -13 14 -3 75 5 26 4 32 -3 21 -6 -9 -12
-36 -13 -60 -3 -38 0 -44 17 -44 14 0 23 10 31 35 9 27 18 36 38 38 29 4 33
-9 16 -53 -16 -41 -59 -75 -96 -75 -68 0 -77 42 -44 192 30 137 53 168 123
168 54 0 66 -26 53 -115 -10 -68 -14 -73 -66 -78 l-45 -4 46 -1 c27 -1 51 3
56 11 6 6 15 40 22 73 13 71 4 105 -36 123 -28 13 -40 13 -69 1z"/>
<path d="M2272 644 c-14 -9 -22 -11 -22 -4 0 7 -15 10 -37 8 l-38 -3 -37 -170
c-20 -93 -37 -176 -38 -182 0 -8 14 -13 39 -13 l40 0 15 73 c9 39 22 103 30
140 13 66 36 112 36 74 0 -17 -45 -235 -56 -269 -5 -15 1 -18 38 -18 l43 0 35
170 c33 165 33 170 15 190 -22 24 -33 25 -63 4z m63 -21 c3 -9 -9 -88 -27
-175 l-32 -158 -28 0 c-34 0 -34 -1 -3 140 26 116 31 160 18 160 -24 -1 -35
-27 -58 -135 -14 -66 -27 -130 -30 -143 -4 -17 -12 -22 -36 -22 -21 0 -30 4
-27 13 3 6 20 85 39 175 l33 162 28 0 c18 0 28 -5 28 -15 0 -12 5 -11 31 4 34
21 54 19 64 -6z"/>
<path d="M2664 644 c-43 -21 -62 -60 -88 -183 -26 -120 -24 -154 7 -176 66
-46 167 25 167 115 0 18 -5 21 -37 18 -32 -2 -39 -7 -41 -28 -5 -32 -22 -54
-34 -42 -5 5 -4 28 3 55 11 46 12 46 58 50 l46 3 -47 2 c-55 2 -66 -10 -70
-79 -3 -38 0 -44 17 -44 14 0 23 10 31 35 9 27 18 36 38 38 30 4 32 -3 10 -58
-17 -43 -55 -70 -98 -70 -35 0 -56 26 -56 69 0 41 36 214 49 240 28 51 98 72
136 41 15 -12 17 -26 12 -80 -3 -36 -9 -74 -13 -85 -4 -11 -4 -17 1 -13 4 4
13 35 20 69 15 73 6 111 -31 128 -32 14 -43 14 -80 -5z"/>
<path d="M2938 646 c-16 -9 -28 -10 -28 -5 0 6 -17 9 -37 7 l-38 -3 -31 -145
c-17 -80 -34 -162 -38 -182 l-7 -38 41 0 c22 0 40 3 40 8 2 37 62 267 72 273
7 5 23 9 34 9 22 0 34 23 34 68 0 26 -5 27 -42 8z m27 -35 c-5 -24 -12 -31
-31 -31 -34 0 -49 -31 -73 -145 -12 -55 -23 -110 -26 -123 -4 -17 -12 -22 -36
-22 -21 0 -30 4 -27 13 3 6 20 85 39 175 34 162 34 162 61 162 19 0 28 -5 28
-17 0 -14 2 -15 18 -1 17 16 44 28 50 22 2 -1 1 -16 -3 -33z"/>
<path d="M404 594 c20 -32 77 -86 84 -79 6 5 -77 98 -92 104 -6 2 -2 -9 8 -25z"/>
<path d="M2678 583 c-9 -10 -19 -33 -23 -51 -7 -32 -6 -33 21 -30 22 2 30 10
38 36 7 25 6 37 -6 48 -13 13 -16 13 -30 -3z m26 -41 c-4 -22 -12 -32 -25 -32
-15 0 -16 5 -9 30 12 41 21 53 31 43 5 -5 6 -24 3 -41z"/>
<path d="M2012 573 c-5 -10 -12 -30 -16 -45 -6 -26 -4 -28 23 -28 24 0 29 5
35 31 3 17 6 38 6 45 0 20 -38 17 -48 -3z m33 -25 c-9 -40 -10 -41 -27 -36
-20 4 -3 68 18 68 12 0 14 -7 9 -32z"/>
<path d="M440 460 c0 -13 49 -37 93 -45 25 -5 37 -4 37 4 0 6 -10 11 -22 11
-13 0 -42 9 -65 20 -24 10 -43 15 -43 10z"/>
</g>
</svg>
