<?xml version="1.0" standalone="no"?>
<!DOCTYPE svg PUBLIC "-//W3C//DTD SVG 20010904//EN"
 "http://www.w3.org/TR/2001/REC-SVG-20010904/DTD/svg10.dtd">
<svg version="1.0" xmlns="http://www.w3.org/2000/svg"
 width="300.000000pt" height="123.000000pt" viewBox="0 0 300.000000 123.000000"
 preserveAspectRatio="xMidYMid meet">
<metadata>
Created by potrace 1.10, written by Peter Selinger 2001-2011
</metadata>
<g transform="translate(0.000000,123.000000) scale(0.100000,-0.100000)"
fill="#000000" stroke="none">
<path d="M1065 1179 c-4 -6 -5 -12 -2 -15 2 -3 7 2 10 11 7 17 1 20 -8 4z"/>
<path d="M54 1042 c-23 -15 -34 -50 -24 -76 11 -31 52 -59 73 -50 17 6 52 -29
92 -91 11 -17 28 -40 38 -51 55 -57 127 -192 127 -235 0 -26 30 -78 48 -83 10
-4 18 -15 19 -26 2 -19 42 -81 98 -147 45 -54 75 -69 129 -65 42 4 46 6 40 25
-4 14 4 9 26 -17 37 -41 35 -56 -4 -30 -15 9 -29 14 -32 11 -8 -8 57 -47 68
-41 28 17 -41 105 -103 131 -24 10 -48 58 -35 70 2 2 30 -8 61 -22 60 -29 103
-65 98 -82 -5 -15 106 -65 129 -57 15 4 16 9 7 26 -6 11 -24 27 -39 36 -19 11
-31 28 -35 49 -8 46 -43 83 -148 158 -87 61 -115 94 -132 151 -11 42 1 49 78
48 58 -1 81 3 119 22 25 13 48 19 50 14 7 -22 30 9 24 33 -7 31 -34 42 -55 23
-27 -24 -148 -31 -209 -11 -28 10 -63 15 -77 13 -21 -5 -25 -2 -25 21 -1 64
-56 105 -99 74 -27 -18 -27 -33 -1 -26 11 3 20 9 20 14 0 15 40 10 45 -6 3 -8
8 -23 11 -32 12 -33 14 -73 4 -73 -6 0 -10 -4 -10 -10 0 -5 7 -6 17 -3 11 4
14 3 9 -5 -4 -7 -2 -12 3 -12 6 0 11 9 11 19 0 28 27 33 85 15 45 -14 51 -20
47 -39 -3 -17 -9 -21 -27 -17 -17 3 -22 9 -18 21 4 9 3 13 -1 9 -4 -3 -10 -32
-12 -63 -4 -43 -2 -61 10 -74 9 -10 19 -31 22 -49 l6 -31 -51 14 c-29 7 -63
21 -77 29 -14 10 -24 12 -24 6 0 -15 79 -50 113 -50 42 0 32 -18 -20 -33 -54
-16 -109 -7 -130 21 -7 9 -13 35 -13 60 0 24 -4 41 -9 38 -5 -3 -16 13 -25 37
-15 39 -34 68 -123 187 -26 34 -31 46 -21 57 10 12 16 9 37 -18 13 -17 40 -45
58 -62 34 -31 46 -74 17 -63 -8 3 -12 2 -9 -4 12 -20 33 -9 37 20 4 25 -1 35
-31 57 -20 15 -45 39 -56 53 -11 13 -28 33 -37 42 -10 10 -18 33 -18 53 0 24
-5 35 -15 35 -8 0 -15 -8 -15 -17 0 -15 2 -16 10 -3 7 11 10 6 10 -22 0 -20 5
-40 11 -44 8 -4 7 -9 -2 -15 -9 -5 -23 1 -41 18 -24 23 -26 29 -14 42 22 26
27 51 14 74 -15 29 -27 37 -63 37 -16 0 -35 -4 -41 -8z m80 -18 c21 -20 20
-53 -1 -76 -20 -22 -56 -23 -77 -2 -19 18 -21 65 -4 82 17 17 64 15 82 -4z
m684 -283 c3 -10 0 -12 -12 -8 -10 4 -24 0 -33 -9 -21 -20 -28 -11 -11 15 14
24 49 25 56 2z m-89 -42 c-19 -12 -119 -11 -119 0 0 15 17 22 63 28 23 2 44 7
46 9 3 3 9 -3 14 -12 6 -11 5 -19 -4 -25z m59 -322 c11 -12 23 -33 27 -46 7
-22 5 -23 -25 -16 -42 9 -160 65 -140 66 8 0 4 5 -9 10 -26 10 -81 9 -81 -3 0
-4 8 -13 19 -20 10 -7 22 -28 25 -45 4 -18 13 -31 19 -30 6 1 11 -11 11 -28 1
-43 -28 -45 -71 -3 -45 43 -123 154 -123 175 0 13 3 14 12 5 7 -7 22 -12 33
-12 32 0 105 56 105 80 0 16 16 8 89 -46 49 -36 98 -75 109 -87z m-3 -78 c4
-6 13 -8 21 -5 13 5 41 -31 31 -40 -3 -3 -17 -2 -31 2 -15 3 -24 9 -21 12 3 3
-2 14 -12 24 -9 10 -11 18 -5 18 6 0 14 -5 17 -11z m-105 -34 c4 3 6 -4 3 -15
-7 -25 -33 -26 -33 -2 0 22 13 38 18 23 2 -6 7 -9 12 -6z m205 -25 c23 -25 18
-29 -23 -18 -27 7 -30 11 -20 23 17 19 22 18 43 -5z"/>
<path d="M1734 852 l-31 -3 -48 -232 c-26 -128 -50 -237 -52 -244 -3 -7 8 -11
31 -10 20 1 36 3 36 6 0 2 23 112 51 244 27 131 49 240 47 241 -2 0 -17 0 -34
-2z"/>
<path d="M2525 850 c-1 -3 -8 -35 -15 -72 -7 -38 -14 -68 -16 -68 -3 0 -16 7
-29 16 -23 15 -26 15 -53 -13 -24 -24 -32 -48 -57 -175 -24 -123 -27 -149 -16
-162 17 -20 40 -20 69 0 17 11 22 12 22 2 0 -8 12 -13 30 -13 17 0 30 1 30 3
0 1 23 108 50 238 28 129 50 239 50 243 0 9 -60 9 -65 1z m8 -153 c-6 -37 -16
-46 -28 -26 -4 5 0 18 9 28 9 10 16 24 16 31 0 7 2 11 5 9 2 -3 2 -22 -2 -42z
m-83 -2 c0 -2 -10 -10 -22 -16 -21 -11 -22 -11 -9 4 13 16 31 23 31 12z m30
-42 c0 -37 -43 -218 -54 -225 -24 -15 -25 13 -6 108 11 54 23 107 26 117 7 22
34 22 34 0z m27 -55 c-3 -8 -6 -5 -6 6 -1 11 2 17 5 13 3 -3 4 -12 1 -19z
m-117 -195 c0 -24 -25 -9 -28 17 -3 21 -2 22 12 11 9 -7 16 -20 16 -28z m83
17 c-3 -11 -9 -20 -14 -20 -11 0 -11 3 -3 24 9 23 23 20 17 -4z"/>
<path d="M385 820 c3 -5 8 -10 11 -10 2 0 4 5 4 10 0 6 -5 10 -11 10 -5 0 -7
-4 -4 -10z"/>
<path d="M340 812 c0 -11 29 -49 30 -38 0 5 7 3 15 -4 8 -7 15 -8 15 -2 0 5
-6 15 -14 21 -11 9 -15 9 -20 -1 -3 -7 -3 -3 0 10 4 16 1 22 -10 22 -9 0 -16
-4 -16 -8z"/>
<path d="M1824 779 c-5 -29 -13 -43 -29 -49 -30 -12 -40 -60 -13 -60 12 0 18
-5 16 -12 -3 -7 -15 -65 -28 -129 -23 -111 -23 -118 -7 -143 13 -20 26 -26 52
-26 21 0 35 5 35 13 0 6 3 22 6 35 5 18 2 22 -15 22 -11 0 -21 3 -21 8 0 4 10
58 22 120 20 101 25 112 44 112 15 0 25 9 33 30 9 28 8 30 -16 30 -26 0 -27 6
-7 73 4 14 -1 17 -30 17 -34 0 -36 -2 -42 -41z m29 -99 c-25 -24 -25 -24 -39
-5 -13 18 -13 22 6 37 11 9 20 22 20 28 0 7 9 2 19 -11 19 -24 19 -24 -6 -49z
m-26 -62 c-3 -8 -6 -5 -6 6 -1 11 2 17 5 13 3 -3 4 -12 1 -19z m-7 -223 c0 -8
-30 -6 -31 3 0 4 -3 21 -5 37 l-5 30 21 -33 c11 -18 20 -35 20 -37z"/>
<path d="M360 740 c6 -11 16 -19 22 -17 6 1 12 -8 13 -21 2 -23 71 -102 89
-102 6 0 -10 20 -34 45 -33 34 -41 48 -32 54 10 6 10 10 -3 21 -14 11 -13 14
2 26 10 7 13 14 6 14 -6 0 -15 -5 -18 -10 -4 -7 -12 -7 -25 0 -27 15 -32 12
-20 -10z"/>
<path d="M1186 720 c-25 -16 -31 -16 -43 -4 -8 8 -32 14 -53 14 -30 0 -43 -6
-64 -30 -39 -47 -68 -179 -48 -217 9 -17 7 -24 -13 -43 -29 -27 -32 -52 -9
-71 14 -12 14 -14 -5 -20 -11 -5 -27 -19 -37 -33 -15 -24 -15 -28 0 -51 16
-25 38 -31 101 -27 67 5 104 34 119 95 9 37 -26 72 -83 81 -50 8 -51 27 -1 37
18 4 43 18 57 31 24 25 53 110 53 161 0 22 5 27 24 27 19 0 25 6 29 33 2 17 4
33 3 34 -1 1 -15 -6 -30 -17z m-58 -29 c8 -5 12 -17 10 -27 -3 -15 -6 -14 -21
9 -18 27 -13 34 11 18z m-28 -33 c-1 -7 -7 -42 -14 -77 -14 -61 -32 -89 -49
-72 -7 7 17 134 29 153 8 13 34 9 34 -4z m-74 -175 c-7 -7 -26 7 -26 19 0 6 6
6 15 -2 9 -7 13 -15 11 -17z m34 -103 c16 0 30 -7 34 -16 11 -30 6 -35 -16
-14 -21 19 -42 25 -80 22 -9 -1 -19 6 -22 14 -11 28 5 35 31 14 14 -11 38 -20
53 -20z m5 -52 c15 -14 -25 -39 -59 -36 -35 4 -43 20 -21 42 17 16 59 13 80
-6z m-105 -43 c7 -8 8 -15 2 -15 -5 0 -15 7 -22 15 -7 8 -8 15 -2 15 5 0 15
-7 22 -15z"/>
<path d="M2267 720 c-30 -24 -38 -25 -31 -5 5 12 -2 15 -28 15 l-34 0 -37
-177 c-21 -98 -37 -180 -37 -183 0 -3 14 -5 32 -4 l32 1 29 139 c27 129 46
178 63 161 6 -6 -33 -223 -52 -288 -3 -12 3 -15 30 -15 l34 1 31 150 c36 175
38 201 12 214 -14 8 -25 6 -44 -9z m-60 -51 c-6 -10 -13 -15 -15 -9 -6 17 7
42 18 35 6 -4 5 -13 -3 -26z m92 -6 c-1 -22 -3 -29 -6 -18 -3 11 -9 24 -14 30
-14 14 -11 25 6 25 11 0 15 -10 14 -37z"/>
<path d="M2935 728 c-11 -6 -26 -18 -34 -27 -12 -14 -12 -13 -6 7 6 20 3 22
-27 22 l-34 0 -37 -177 c-21 -98 -37 -180 -37 -183 0 -4 15 -4 33 -2 l33 4 26
129 c14 71 32 136 38 144 7 8 23 15 37 15 24 0 27 4 37 53 7 29 2 32 -29 15z
m-55 -49 c0 -6 -7 -17 -15 -25 -13 -14 -15 -13 -15 9 0 13 3 27 6 30 9 8 24
-1 24 -14z"/>
<path d="M1256 701 c-22 -23 -34 -53 -52 -133 -29 -126 -30 -169 -6 -191 40
-37 121 -7 143 52 15 37 49 208 49 241 0 63 -85 83 -134 31z m104 -22 c0 -6
-4 -7 -10 -4 -5 3 -10 11 -10 16 0 6 5 7 10 4 6 -3 10 -11 10 -16z m-35 -9 c3
-6 -1 -47 -10 -93 -28 -141 -34 -157 -55 -157 -11 0 -20 7 -20 15 0 23 39 197
50 223 10 23 25 29 35 12z m-89 -277 c-7 -7 -26 7 -26 19 0 6 6 6 15 -2 9 -7
13 -15 11 -17z"/>
<path d="M1471 699 c-17 -17 -31 -34 -31 -39 0 -5 -3 -15 -6 -24 -5 -13 1 -16
28 -16 28 0 35 5 45 30 14 38 33 39 33 2 0 -34 -13 -50 -68 -85 -49 -32 -78
-74 -87 -128 -12 -71 33 -103 82 -57 22 21 23 21 23 1 0 -15 7 -20 29 -20 l29
0 31 151 c37 176 37 178 13 199 -31 28 -86 22 -121 -14z m106 -14 c9 -24 -1
-27 -20 -5 -14 17 -15 20 -2 20 9 0 18 -7 22 -15z m-21 -151 l-11 -46 -7 34
c-5 20 -3 42 4 56 18 34 26 8 14 -44z m-39 -8 c-3 -8 -9 -31 -13 -51 -7 -38
-40 -67 -50 -42 -10 27 34 107 59 107 5 0 7 -6 4 -14z m16 -93 c-10 -30 -14
-34 -24 -27 -6 4 -3 14 7 25 21 24 25 24 17 2z m-95 -13 c7 -12 8 -20 2 -20
-5 0 -13 -1 -17 -2 -3 -2 -7 7 -8 20 -2 27 6 28 23 2z"/>
<path d="M1987 719 c-26 -15 -46 -62 -67 -157 -34 -153 -23 -202 46 -202 52 0
91 41 108 113 6 27 5 28 -26 25 -27 -2 -34 -8 -38 -32 -5 -29 -33 -56 -46 -43
-4 3 -3 30 2 59 l9 52 55 -3 56 -2 12 58 c16 81 15 107 -6 126 -21 19 -77 22
-105 6z m90 -34 c9 -24 -1 -27 -15 -5 -8 13 -8 20 -2 20 6 0 13 -7 17 -15z
m-32 -15 c3 -5 3 -25 -1 -45 -5 -29 -11 -35 -31 -35 -23 0 -25 3 -19 32 9 47
36 73 51 48z m-76 -93 c8 -11 7 -18 -7 -30 -18 -16 -18 -15 -14 13 5 34 6 35
21 17z m94 -2 c-3 -9 -8 -14 -10 -11 -3 3 -2 9 2 15 9 16 15 13 8 -4z m-107
-182 c-7 -7 -26 7 -26 19 0 6 6 6 15 -2 9 -7 13 -15 11 -17z"/>
<path d="M2636 709 c-28 -22 -44 -68 -71 -208 -16 -81 -16 -85 3 -110 23 -32
60 -38 102 -16 29 15 46 42 64 103 7 20 4 22 -28 22 -30 0 -36 -4 -36 -21 0
-28 -18 -59 -35 -59 -20 0 -22 17 -11 72 l10 50 55 -4 55 -3 15 72 c13 65 13
73 -2 97 -22 33 -82 36 -121 5z m99 -19 c3 -5 2 -10 -4 -10 -5 0 -13 5 -16 10
-3 6 -2 10 4 10 5 0 13 -4 16 -10z m-31 -18 c3 -5 3 -25 -1 -45 -5 -32 -9 -37
-34 -37 -26 0 -27 2 -19 31 14 48 40 73 54 51z m-74 -108 c0 -8 -6 -14 -14
-14 -9 0 -12 7 -9 20 6 22 23 18 23 -6z m-24 -161 c-7 -7 -26 7 -26 19 0 6 6
6 15 -2 9 -7 13 -15 11 -17z"/>
</g>
</svg>
